<svg width="29" height="29" viewBox="0 0 29 29" fill="none" xmlns="http://www.w3.org/2000/svg">
<path fill-rule="evenodd" clip-rule="evenodd" d="M14.1389 2.9649C12.2865 2.9649 10.7472 3.03094 9.49858 3.28648C8.23424 3.54523 7.19221 4.01302 6.40935 4.87065C5.63571 5.71816 5.20526 6.84863 4.95854 8.25031C4.71225 9.64948 4.63494 11.4062 4.63494 13.5828C4.63494 14.4228 4.63351 15.2114 4.63218 15.9512V15.9514C4.62585 19.4502 4.62151 21.8556 4.77926 23.4244C4.87338 24.3604 5.03569 25.1549 5.39257 25.7255C5.5845 26.0324 5.83939 26.2867 6.17036 26.456C6.4954 26.6223 6.83859 26.6784 7.16708 26.6784C7.91755 26.6784 8.64525 26.2656 9.23264 25.8575C9.80605 25.459 10.4097 24.9432 10.9805 24.4554L11.1156 24.34C11.7459 23.8019 12.3379 23.3052 12.8935 22.9405C13.4698 22.5621 13.8749 22.4169 14.1389 22.4169C14.4028 22.4169 14.8079 22.5621 15.3842 22.9405C15.9398 23.3052 16.5318 23.8019 17.1621 24.34L17.2972 24.4554C17.868 24.9432 18.4716 25.459 19.0451 25.8575C19.6325 26.2656 20.3601 26.6784 21.1106 26.6784C21.4391 26.6784 21.7823 26.6223 22.1073 26.456C22.4383 26.2867 22.6932 26.0324 22.8851 25.7255C23.242 25.1549 23.4043 24.3604 23.4984 23.4244C23.6562 21.8556 23.6518 19.4502 23.6455 15.9515V15.9514C23.6442 15.2115 23.6428 14.4228 23.6428 13.5828C23.6428 11.4062 23.5654 9.64948 23.3192 8.25031C23.0724 6.84863 22.642 5.71816 21.8684 4.87065C21.0855 4.01302 20.0435 3.54523 18.7791 3.28648C17.5305 3.03094 15.9912 2.9649 14.1389 2.9649ZM6.37007 13.5828C6.37007 11.4233 6.44878 9.79313 6.6674 8.5511C6.88558 7.31158 7.22893 6.54648 7.69086 6.04045C8.14355 5.54452 8.79885 5.20078 9.84647 4.98638C10.9098 4.76877 12.2971 4.70004 14.1389 4.70004C15.9806 4.70004 17.3679 4.76877 18.4312 4.98638C19.4789 5.20078 20.1342 5.54452 20.5868 6.04045C21.0488 6.54648 21.3921 7.31158 21.6103 8.5511C21.8289 9.79313 21.9076 11.4233 21.9076 13.5828C21.9076 14.4433 21.909 15.2447 21.9103 15.9911V15.9912C21.9162 19.4912 21.9201 21.7784 21.772 23.2508C21.6808 24.1582 21.5423 24.6003 21.414 24.8055C21.3633 24.8865 21.3295 24.9049 21.3171 24.9113C21.2987 24.9207 21.2437 24.9433 21.1106 24.9433C20.9386 24.9433 20.5977 24.8234 20.0352 24.4325C19.5364 24.086 18.9969 23.6252 18.4046 23.1193L18.2886 23.0202C17.6708 22.4929 16.9979 21.9243 16.3365 21.49C15.6957 21.0693 14.9316 20.6818 14.1389 20.6818C13.3461 20.6818 12.582 21.0693 11.9412 21.49C11.2798 21.9243 10.6069 22.4929 9.98908 23.0202L9.87313 23.1193L9.87311 23.1193C9.28079 23.6252 8.74128 24.086 8.24255 24.4325C7.67998 24.8234 7.33912 24.9433 7.16708 24.9433C7.03403 24.9433 6.97903 24.9207 6.96064 24.9113C6.94817 24.9049 6.91436 24.8865 6.86369 24.8055C6.73538 24.6003 6.59693 24.1582 6.50569 23.2508C6.35763 21.7784 6.36151 19.4912 6.36745 15.9911L6.36745 15.9911C6.36871 15.2447 6.37007 14.4433 6.37007 13.5828ZM10.1742 10.7356C9.69504 10.7356 9.30661 11.1241 9.30661 11.6032C9.30661 12.0823 9.69504 12.4708 10.1742 12.4708H18.1038C18.5829 12.4708 18.9713 12.0823 18.9713 11.6032C18.9713 11.1241 18.5829 10.7356 18.1038 10.7356H10.1742Z" fill="#1C1C1C"/>
</svg>
