<svg width="737" height="1014" viewBox="0 0 737 1014" fill="none" xmlns="http://www.w3.org/2000/svg">
<path d="M528.91 438.78C642.41 438.78 734.42 426.741 734.42 411.89C734.42 397.039 642.41 385 528.91 385C415.41 385 323.4 397.039 323.4 411.89C323.4 426.741 415.41 438.78 528.91 438.78Z" fill="#F7F3EF" stroke="#070707" stroke-width="4" stroke-linecap="round" stroke-linejoin="round"/>
<path d="M133.78 647.19L92.1803 1006.93C92.1374 1007.52 92.219 1008.1 92.4196 1008.66C92.6203 1009.21 92.9355 1009.71 93.3445 1010.13C93.7535 1010.55 94.247 1010.88 94.7927 1011.1C95.3383 1011.32 95.9237 1011.42 96.5103 1011.39C97.4899 1011.42 98.4488 1011.11 99.2275 1010.51C100.006 1009.92 100.558 1009.07 100.79 1008.12L168.4 647.19H133.78Z" fill="#F7F3EF" stroke="#070707" stroke-width="4" stroke-linecap="round" stroke-linejoin="round"/>
<path d="M293.25 647.19L334.85 999.99C334.892 1000.58 334.809 1001.16 334.608 1001.71C334.407 1002.27 334.091 1002.77 333.683 1003.19C333.274 1003.61 332.781 1003.94 332.236 1004.16C331.691 1004.37 331.107 1004.47 330.52 1004.45C329.541 1004.48 328.582 1004.17 327.803 1003.57C327.025 1002.98 326.473 1002.13 326.24 1001.18L258.63 647.18L293.25 647.19Z" fill="#F7F3EF" stroke="#070707" stroke-width="4" stroke-linecap="round" stroke-linejoin="round"/>
<path d="M317.03 625.11H106.72C103.07 625.11 100.11 628.069 100.11 631.72V640.58C100.11 644.231 103.07 647.19 106.72 647.19H317.03C320.681 647.19 323.64 644.231 323.64 640.58V631.72C323.64 628.069 320.681 625.11 317.03 625.11Z" fill="#F7F3EF" stroke="#070707" stroke-width="4" stroke-linecap="round" stroke-linejoin="round"/>
<path d="M105.35 602.66C101.036 600.577 96.5738 598.816 92.0002 597.39C78.4802 593.67 73.6702 600.68 73.6702 600.68L87.3701 680.68C87.3701 680.68 102.44 679.91 105.53 658.06C108.75 635.25 113.82 627.41 113.82 627.41L105.35 602.66Z" fill="#EFAF00" stroke="black" stroke-width="4" stroke-linecap="round" stroke-linejoin="round"/>
<path d="M343.82 529C338 598.07 319.71 625.67 298 625.67C297.728 625.669 297.456 625.639 297.19 625.58C157.85 623.93 93.5301 629.29 92.1901 619.37C91.0801 611.49 135.27 574.23 185.52 562.37C231.89 551.37 235.7 565.23 262.3 555.14C260.53 547.86 258.97 540.14 257.68 532.08C263.56 532.4 269.11 532.64 274.36 532.8C310.74 533.85 332.51 531.18 343.82 529Z" fill="#1C0E0C"/>
<path d="M33.5902 603C28.8999 602.063 24.1471 601.471 19.3702 601.23C5.37019 601 2.4502 609 2.4502 609L35.6902 683C35.6902 683 50.1002 678.48 47.6302 656.56C45.0502 633.67 47.9902 624.81 47.9902 624.81L33.5902 603Z" fill="#EFAF00" stroke="black" stroke-width="4" stroke-linecap="round" stroke-linejoin="round"/>
<path d="M274.3 532.76C271.57 599.08 261.85 625.67 227.54 625.67C227.265 625.668 226.99 625.638 226.72 625.58C132.66 624.46 72.7902 626.58 43.3802 624.97C29.2302 624.21 32.5702 606.12 33.5902 602.97C33.5902 602.97 64.7702 574.18 115 562.28C161.37 551.28 169.61 564.9 192.51 557.94C189.771 547.095 187.647 536.105 186.15 525.02C222.16 529.86 251.18 532.06 274.3 532.76Z" fill="#C48270" stroke="#0F0F0F" stroke-width="4" stroke-linecap="round" stroke-linejoin="round"/>
<path d="M209.56 174.22C199.21 182.08 181.79 195.53 174.62 217.74C193.06 220.97 219.35 231.83 229.62 238.6C229.62 238.6 225.01 252.23 220.52 260.29C167.76 354.85 167.76 522.48 167.76 522.48C310.31 543.58 353.83 526.48 353.83 526.48C355.95 439.84 342.56 279.11 332.44 196.71C341.06 199.151 349.912 200.686 358.85 201.29C356.16 157.52 366.45 143.71 366.45 143.71C349.74 138.39 323.2 138.07 310.07 139.38C301.88 139.74 293.19 140.77 293.19 140.77C288.55 141.35 229.27 159.24 209.56 174.22Z" fill="#F7F3EF" stroke="#070707" stroke-width="4" stroke-linecap="round" stroke-linejoin="round"/>
<path d="M307.88 137.62C358.54 199.73 354.14 449.8 354.14 449.8L287.28 449.97C274.924 450.02 262.996 445.447 253.841 437.15C244.685 428.853 238.963 417.431 237.8 405.13C231.31 334.44 195.26 329.06 195.26 329.06L200.8 313.79C200.8 313.79 262.94 300.79 259.56 239.45C256.56 185.45 222.19 163.45 222.19 163.45C222.19 163.45 232.19 158.07 240.04 156.74C247.89 155.41 270.41 197.21 276.29 201.06C277.81 202.06 297.9 196.93 315.67 190.13C315.67 190.13 297.18 143.54 293.67 140.36C290.16 137.18 307.88 137.62 307.88 137.62Z" fill="#EFAF00" stroke="black" stroke-width="4" stroke-linecap="round" stroke-linejoin="round"/>
<path d="M525.6 98.1501C530.78 99.0301 535.26 108.86 535.9 110.07C536.54 111.28 538.9 117.76 538.9 117.76C538.9 117.76 533.64 120.89 530.97 116.01C527.82 110.23 525.05 110.44 520.64 111.13C518.81 111.42 516.87 112.54 517.64 114.96C518.41 117.38 525.53 116.49 527.44 117.41C530.36 118.82 530.58 122.32 530.58 122.32C530.58 122.32 519.48 123.32 517.35 123.5C515.71 123.65 507.01 121.41 499.77 117.87C488.48 133.75 455.64 176.08 418.45 188.54C392.65 197.19 371.86 197.82 358.54 196.7C356.94 159.48 365.03 145.7 366.23 143.89C379.71 144.35 394.59 144.01 408.58 141.65C428.58 138.28 459.58 111.2 491.05 102.65C493.71 102.24 511.21 95.7201 525.6 98.1501Z" fill="#C48270" stroke="#0F0F0F" stroke-width="4" stroke-linecap="round" stroke-linejoin="round"/>
<path d="M521.71 137.52C521.71 137.52 536.44 131.09 530.31 117.24L521.71 137.52Z" fill="#F7F3EF"/>
<path d="M521.71 137.52C521.71 137.52 536.44 131.09 530.31 117.24" stroke="#070707" stroke-width="4" stroke-linecap="round" stroke-linejoin="round"/>
<path d="M519.58 151.58C524.087 151.58 527.74 147.927 527.74 143.42C527.74 138.914 524.087 135.26 519.58 135.26C515.074 135.26 511.42 138.914 511.42 143.42C511.42 147.927 515.074 151.58 519.58 151.58Z" fill="#EA631F" stroke="#070707" stroke-width="4" stroke-linecap="round" stroke-linejoin="round"/>
<path d="M369.71 144C369.71 144 362.62 163.76 372 197.08C367.527 197.202 363.05 197.075 358.59 196.7C356.99 159.49 365.08 145.7 366.28 143.9L369.71 144Z" fill="#1C0E0C"/>
<path d="M290.54 370.1C290.54 370.1 283.47 374.64 277.22 375.72C269.1 377.12 254.9 372.24 250.8 367.23C205.71 361.13 167.74 302.48 167.74 291.83C167.74 278.83 170.49 246.45 184.01 219.83C200.69 224.24 220.86 232.91 229.81 238.6C220.55 262.11 218.21 286.01 217.28 288.15C215.86 291.42 247.01 347.15 251 352.71C262.89 350.52 266 353.71 267.42 356.63C268.84 359.55 269.42 368.06 284.68 365.86C288.84 365.28 290.54 370.1 290.54 370.1Z" fill="#C48270" stroke="#0F0F0F" stroke-width="4" stroke-linecap="round" stroke-linejoin="round"/>
<path d="M229.6 238.6C228.12 242.26 226.6 245.93 224.99 249.54C215.26 241.47 198.73 234.94 177.11 234.23C179.3 229.38 181.62 224.55 184.01 219.84C201.08 224.35 221 232.92 229.6 238.6Z" fill="#1C0E0C"/>
<path d="M289.18 357.71C289.078 357.853 288.943 357.97 288.786 358.05C288.63 358.13 288.456 358.171 288.28 358.17C288.015 358.17 287.761 358.065 287.573 357.877C287.386 357.69 287.28 357.435 287.28 357.17C287.277 357.018 287.311 356.866 287.38 356.73C286.812 352.802 285.939 348.924 284.77 345.13C282.77 352.21 275.05 355.22 274.95 355.25C274.833 355.297 274.707 355.321 274.58 355.32C274.449 355.344 274.314 355.341 274.184 355.313C274.054 355.285 273.93 355.231 273.821 355.155C273.711 355.078 273.617 354.981 273.545 354.869C273.473 354.757 273.424 354.632 273.4 354.5C273.377 354.369 273.379 354.234 273.408 354.104C273.436 353.974 273.49 353.85 273.566 353.74C273.642 353.631 273.739 353.537 273.851 353.465C273.964 353.393 274.089 353.344 274.22 353.32C274.64 353.16 283.13 349.85 283.13 341.78C283.129 340.917 283.039 340.055 282.86 339.21V339.12C282.822 339.014 282.802 338.903 282.8 338.79C282.653 338.173 282.469 337.566 282.25 336.97C282.156 336.712 282.169 336.426 282.285 336.177C282.401 335.927 282.612 335.734 282.87 335.64C283.129 335.546 283.414 335.559 283.664 335.675C283.913 335.791 284.106 336.002 284.2 336.26C284.485 337.044 284.719 337.846 284.9 338.66C286.228 342.42 287.353 346.249 288.27 350.13C289.81 356.8 289.45 357.32 289.18 357.71Z" fill="#F7F3EF" stroke="#070707" stroke-width="4" stroke-linecap="round" stroke-linejoin="round"/>
<path d="M287.8 366.62C290.987 366.62 293.57 363.983 293.57 360.73C293.57 357.477 290.987 354.84 287.8 354.84C284.614 354.84 282.03 357.477 282.03 360.73C282.03 363.983 284.614 366.62 287.8 366.62Z" fill="#EA631F" stroke="#070707" stroke-width="4" stroke-linecap="round" stroke-linejoin="round"/>
<path d="M272.54 365.18C276.495 365.18 279.7 361.908 279.7 357.87C279.7 353.833 276.495 350.56 272.54 350.56C268.586 350.56 265.38 353.833 265.38 357.87C265.38 361.908 268.586 365.18 272.54 365.18Z" fill="#EA631F" stroke="#070707" stroke-width="4" stroke-linecap="round" stroke-linejoin="round"/>
<path d="M228.77 237.96L240.93 216.21" stroke="#070707" stroke-width="4" stroke-linecap="round" stroke-linejoin="round"/>
<path d="M246 121C246 121 253.56 142.29 238 159.09C238 159.09 271.31 163.69 295.75 143.79C295.75 143.79 286.05 130.35 288.11 106.33L246 121Z" fill="#C48270" stroke="#0F0F0F" stroke-width="4" stroke-linecap="round" stroke-linejoin="round"/>
<path d="M295.84 143.78C293.84 145.31 291.73 146.91 290.89 147.41C274.52 157.01 253.27 141.35 247.89 132.08C247.777 128.317 247.141 124.588 246 121L288.12 106.33C286.32 127.77 294 141.28 295.84 143.78Z" fill="#1C0E0C"/>
<path d="M233.72 114C212.2 99.0001 206.28 81.5701 209 66.9201C208.154 67.0193 207.301 67.0527 206.45 67.0201C203.98 66.9201 198.91 68.2201 197.29 66.4201C195.67 64.6201 195.36 61.6401 197.05 59.9101C192.609 60.2201 188.151 60.2201 183.71 59.9101C178.6 59.5601 174.11 56.6901 172.88 51.9101C171.97 48.4101 174.44 44.7301 177.73 42.9601C180.418 41.6781 183.344 40.973 186.32 40.8901C184.322 39.7515 182.068 39.1378 179.768 39.1064C177.469 39.0749 175.199 39.6266 173.17 40.7101C172.927 40.8427 172.642 40.8735 172.377 40.7957C172.111 40.7178 171.888 40.5378 171.755 40.2951C171.623 40.0524 171.592 39.767 171.67 39.5016C171.747 39.2363 171.927 39.0127 172.17 38.8801C174.95 37.3498 178.141 36.734 181.29 37.1201C179.526 35.1344 178.471 32.6197 178.29 29.9701C178.138 27.1767 178.569 24.3821 179.558 21.7649C180.546 19.1477 182.069 16.7654 184.03 14.7701C187.71 11.2201 193.46 9.37009 198.68 9.23009C200.72 9.16197 202.748 9.56923 204.603 10.4196C206.458 11.2701 208.09 12.5403 209.37 14.1301C208.68 10.1301 210.73 4.0101 213.42 2.1301C219.42 -2.0899 227.78 1.6301 229.2 5.5701C229.66 6.8701 229.79 8.40009 230.57 9.48009C231.95 7.55009 233.67 5.48009 235.76 4.66009C243.55 1.49009 249.97 6.21009 250.69 10.1701C251.3 13.5101 249.44 16.8901 246.61 19.0001C247.617 18.741 248.677 18.7695 249.668 19.0824C250.66 19.3953 251.544 19.98 252.22 20.7701C253.91 22.8801 254.01 25.7701 253.49 28.4201C253.205 29.8884 252.731 31.3136 252.08 32.6601C253.93 32.1001 257 30.4701 257.52 25.6601C257.535 25.5248 257.577 25.3939 257.643 25.2747C257.708 25.1555 257.797 25.0504 257.903 24.9655C258.009 24.8805 258.131 24.8173 258.262 24.7795C258.393 24.7417 258.53 24.73 258.665 24.7451C258.8 24.7602 258.931 24.8018 259.051 24.8675C259.17 24.9332 259.275 25.0218 259.36 25.1281C259.445 25.2344 259.508 25.3564 259.546 25.4872C259.584 25.6179 259.595 25.7548 259.58 25.8901C259.479 27.7272 258.851 29.4963 257.771 30.9859C256.691 32.4755 255.205 33.6226 253.49 34.2901C271.56 34.2901 284.66 43.2901 290.84 63.7201C298.72 90.0001 233.72 114 233.72 114Z" fill="#1C0E0C"/>
<path d="M208.36 67.14C208.207 67.1412 208.055 67.1175 207.91 67.07C207.544 66.9529 207.24 66.6956 207.064 66.3544C206.888 66.0132 206.854 65.616 206.97 65.25C209.037 59.5282 212.023 54.1814 215.81 49.42C224.13 38.88 235.19 32.92 247.81 32.17C248.195 32.1474 248.572 32.2786 248.86 32.5346C249.148 32.7906 249.323 33.1504 249.345 33.535C249.368 33.9195 249.237 34.2973 248.981 34.5852C248.725 34.873 248.365 35.0474 247.98 35.07C236.09 35.78 226.07 41.18 218.17 51.14C214.58 55.6561 211.74 60.721 209.76 66.14C209.663 66.4334 209.475 66.6884 209.223 66.8681C208.971 67.0478 208.669 67.143 208.36 67.14Z" fill="#F1BB26"/>
<path d="M250.12 74.6902C250.12 90.5402 244.41 99.8302 233.45 100.18C233.45 100.18 222.45 97.1802 221.3 104.1C220.3 110.1 230.03 113.1 232.97 113.82C237.87 118.14 267.17 142.6 290.33 129.56C316.16 115.03 297.45 40.4602 262.16 52.5602C260.14 53.2602 250.16 56.3602 250.12 74.6902Z" fill="#C48270" stroke="#0F0F0F" stroke-width="4" stroke-linecap="round" stroke-linejoin="round"/>
<path d="M228.77 239C228.77 239 219.13 274.29 216.47 285.56" stroke="#070707" stroke-width="4" stroke-linecap="round" stroke-linejoin="round"/>
<path d="M230.45 116.92C237.249 116.92 242.76 111.409 242.76 104.61C242.76 97.8114 237.249 92.3 230.45 92.3C223.652 92.3 218.14 97.8114 218.14 104.61C218.14 111.409 223.652 116.92 230.45 116.92Z" fill="#C48270"/>
<path d="M225.68 98.7399C225.68 98.7399 231.47 96.1 236.54 102.95" stroke="#070707" stroke-width="4" stroke-linecap="round" stroke-linejoin="round"/>
<path d="M231.11 99.73L226.84 104.61" stroke="#070707" stroke-width="4" stroke-linecap="round" stroke-linejoin="round"/>
<path d="M269.77 91.1247C271.747 90.5874 272.834 88.2509 272.197 85.9059C271.559 83.5608 269.44 82.0953 267.463 82.6325C265.485 83.1697 264.399 85.5063 265.036 87.8513C265.673 90.1963 267.793 91.6619 269.77 91.1247Z" fill="#1C0E0C"/>
<path d="M293.461 83.9541C294.98 83.5414 295.695 81.3059 295.058 78.9608C294.421 76.6158 292.673 75.0493 291.154 75.462C289.635 75.8747 288.92 78.1103 289.557 80.4553C290.195 82.8003 291.942 84.3668 293.461 83.9541Z" fill="#1C0E0C"/>
<path d="M283.38 84C283.38 84 292.93 86.83 292.31 89.82C291.704 91.9498 290.577 93.8951 289.03 95.48" stroke="#070707" stroke-width="4" stroke-linecap="round" stroke-linejoin="round"/>
<path d="M266.92 102.17C266.92 102.17 273.97 110.22 288.16 106.34" stroke="#070707" stroke-width="4" stroke-linecap="round" stroke-linejoin="round"/>
<path d="M439.32 217.86H625.45C630.754 217.86 635.841 219.967 639.592 223.718C643.343 227.468 645.45 232.556 645.45 237.86V302.46H419.32V237.86C419.32 232.556 421.427 227.468 425.178 223.718C428.929 219.967 434.016 217.86 439.32 217.86Z" fill="#F7F3EF" stroke="#070707" stroke-width="4" stroke-linecap="round" stroke-linejoin="round"/>
<path d="M607 183.71V217.86H461.38V183.71C461.393 179.475 463.085 175.418 466.084 172.429C469.083 169.439 473.145 167.76 477.38 167.76H591C594.994 167.758 598.842 169.255 601.785 171.955C604.728 174.655 606.549 178.361 606.89 182.34C607 182.79 607 183.25 607 183.71Z" fill="#F7F3EF" stroke="#070707" stroke-width="4" stroke-linecap="round" stroke-linejoin="round"/>
<path d="M635.59 220.22V242C635.59 245.639 634.144 249.129 631.571 251.702C628.998 254.275 625.509 255.72 621.87 255.72C618.231 255.72 614.741 254.275 612.168 251.702C609.595 249.129 608.15 245.639 608.15 242V239.43C607.9 235.897 606.32 232.59 603.728 230.176C601.137 227.762 597.727 226.419 594.185 226.419C590.643 226.419 587.233 227.762 584.642 230.176C582.05 232.59 580.47 235.897 580.22 239.43V270.1C580.273 272.242 579.898 274.373 579.115 276.368C578.332 278.363 577.158 280.18 575.662 281.714C574.166 283.248 572.378 284.467 570.403 285.3C568.429 286.132 566.308 286.561 564.165 286.561C562.022 286.561 559.901 286.132 557.927 285.3C555.952 284.467 554.164 283.248 552.668 281.714C551.172 280.18 549.998 278.363 549.215 276.368C548.432 274.373 548.056 272.242 548.11 270.1V250.45C548.11 249.124 547.849 247.81 547.341 246.585C546.834 245.36 546.09 244.246 545.152 243.308C544.214 242.37 543.1 241.626 541.875 241.119C540.65 240.611 539.336 240.35 538.01 240.35H537.71C535.114 240.35 532.623 241.381 530.787 243.217C528.951 245.053 527.92 247.544 527.92 250.14V260.77C527.92 264.069 526.609 267.233 524.276 269.566C521.943 271.899 518.779 273.21 515.48 273.21C512.181 273.21 509.017 271.899 506.684 269.566C504.351 267.233 503.04 264.069 503.04 260.77V235.18C503.04 229.62 498.54 225.88 492.98 225.88H492.67C487.28 225.88 482.91 229.48 482.91 234.88V254.37C482.91 257.073 481.836 259.664 479.925 261.575C478.014 263.486 475.422 264.56 472.72 264.56H472.42C469.797 264.56 467.281 263.518 465.427 261.663C463.572 259.809 462.53 257.293 462.53 254.67V250.54C462.53 246.694 461.002 243.006 458.283 240.287C455.564 237.568 451.876 236.04 448.03 236.04C444.184 236.04 440.496 237.568 437.777 240.287C435.058 243.006 433.53 246.694 433.53 250.54V262C433.53 263.716 433.192 265.415 432.535 267C431.878 268.585 430.915 270.025 429.701 271.238C428.487 272.451 427.047 273.413 425.461 274.069C423.875 274.724 422.176 275.061 420.46 275.06V236.43C420.457 234.141 420.906 231.874 421.78 229.759C422.655 227.644 423.938 225.722 425.556 224.103C427.174 222.484 429.095 221.2 431.21 220.324C433.324 219.449 435.591 218.999 437.88 219H629.21C631.394 219.002 633.559 219.416 635.59 220.22Z" fill="#EFAF00" stroke="black" stroke-width="4" stroke-linecap="round" stroke-linejoin="round"/>
<path d="M483.76 288.25C483.76 288.25 499.26 285.69 496.76 271.1L483.76 288.25Z" fill="#F7F3EF"/>
<path d="M483.76 288.25C483.76 288.25 499.26 285.69 496.76 271.1" stroke="#070707" stroke-width="4" stroke-linecap="round" stroke-linejoin="round"/>
<path d="M488.291 293.641C488.471 289.243 485.051 285.532 480.653 285.353C476.255 285.173 472.544 288.592 472.364 292.99C472.185 297.389 475.604 301.1 480.002 301.279C484.4 301.459 488.111 298.039 488.291 293.641Z" fill="#EA631F" stroke="#070707" stroke-width="4" stroke-linecap="round" stroke-linejoin="round"/>
<path d="M503.12 290C503.12 290 496 285.89 496.22 278.89L503.12 290Z" fill="#F7F3EF"/>
<path d="M503.12 290C503.12 290 496 285.89 496.22 278.89" stroke="#070707" stroke-width="4" stroke-linecap="round" stroke-linejoin="round"/>
<path d="M508.253 300.123C511.147 297.934 511.718 293.813 509.529 290.919C507.339 288.026 503.219 287.455 500.325 289.644C497.431 291.833 496.86 295.954 499.05 298.847C501.239 301.741 505.359 302.312 508.253 300.123Z" fill="#EA631F" stroke="#070707" stroke-width="4" stroke-linecap="round" stroke-linejoin="round"/>
<path d="M644.34 274.74C643.452 274.74 642.6 274.387 641.971 273.759C641.343 273.131 640.99 272.278 640.99 271.39V267.46C640.965 267.004 641.033 266.548 641.191 266.119C641.348 265.69 641.591 265.298 641.905 264.967C642.219 264.635 642.598 264.371 643.017 264.19C643.437 264.01 643.888 263.917 644.345 263.917C644.802 263.917 645.254 264.01 645.673 264.19C646.093 264.371 646.471 264.635 646.785 264.967C647.099 265.298 647.342 265.69 647.499 266.119C647.657 266.548 647.725 267.004 647.7 267.46V271.39C647.7 271.831 647.613 272.267 647.444 272.674C647.275 273.081 647.028 273.451 646.715 273.762C646.403 274.074 646.033 274.32 645.625 274.488C645.218 274.656 644.781 274.741 644.34 274.74Z" fill="#F7F3EF" stroke="#070707" stroke-width="4" stroke-linecap="round" stroke-linejoin="round"/>
<path d="M599.78 247.69C598.737 247.677 597.739 247.257 597.001 246.519C596.263 245.781 595.843 244.784 595.83 243.74V239.81C595.803 239.275 595.885 238.741 596.071 238.239C596.258 237.736 596.544 237.277 596.913 236.889C597.282 236.501 597.726 236.192 598.218 235.981C598.71 235.77 599.24 235.661 599.775 235.661C600.311 235.661 600.841 235.77 601.333 235.981C601.825 236.192 602.269 236.501 602.638 236.889C603.007 237.277 603.293 237.736 603.479 238.239C603.665 238.741 603.747 239.275 603.72 239.81V243.74C603.721 244.258 603.621 244.772 603.423 245.251C603.226 245.73 602.936 246.166 602.57 246.533C602.204 246.899 601.769 247.191 601.29 247.389C600.812 247.588 600.298 247.69 599.78 247.69Z" fill="#F7F3EF" stroke="#070707" stroke-width="4" stroke-linecap="round" stroke-linejoin="round"/>
<path d="M429.05 290.35C427.998 290.337 426.993 289.91 426.254 289.161C425.515 288.412 425.1 287.402 425.1 286.35V282.42C425.1 281.372 425.516 280.368 426.257 279.627C426.998 278.886 428.003 278.47 429.05 278.47C430.098 278.47 431.102 278.886 431.843 279.627C432.584 280.368 433 281.372 433 282.42V286.35C433 287.402 432.586 288.412 431.846 289.161C431.107 289.91 430.102 290.337 429.05 290.35Z" fill="#F7F3EF" stroke="#070707" stroke-width="4" stroke-linecap="round" stroke-linejoin="round"/>
<path d="M461.38 182.34C461.643 184.234 462.589 185.966 464.04 187.21C465.871 188.771 468.204 189.62 470.61 189.6C475.74 189.6 479.9 185.94 479.9 181.43V179.9C479.914 178.78 480.168 177.676 480.646 176.664C481.124 175.651 481.815 174.753 482.67 174.03C484.525 172.43 486.9 171.562 489.35 171.59C494.57 171.59 498.8 175.31 498.8 179.9V198.16C498.815 199.449 499.107 200.719 499.656 201.886C500.204 203.052 500.997 204.087 501.98 204.92C504.123 206.749 506.853 207.743 509.67 207.72C515.67 207.72 520.54 203.44 520.54 198.16V186.47C520.54 183.14 523.6 180.47 527.37 180.47H527.58C531.23 180.47 534.2 183.08 534.2 186.3V192.62C534.214 193.619 534.442 194.604 534.868 195.508C535.294 196.411 535.908 197.213 536.67 197.86C538.339 199.288 540.474 200.056 542.67 200.02C547.32 200.02 551.09 196.71 551.09 192.62V177.38C551.09 174.07 554.14 171.85 557.9 171.85H558.11C561.76 171.85 564.71 173.99 564.71 177.2V188.8C564.71 192.15 567.8 194.87 571.61 194.87H571.82C575.52 194.87 578.51 192.23 578.51 188.98V186.52C578.524 185.357 578.788 184.211 579.283 183.159C579.778 182.106 580.493 181.172 581.38 180.42C583.312 178.766 585.777 177.867 588.32 177.89C593.74 177.89 598.13 181.76 598.13 186.52V193.37C598.145 194.418 598.383 195.452 598.83 196.4C599.277 197.349 599.921 198.191 600.72 198.87C602.465 200.356 604.688 201.162 606.98 201.14V183.71C606.967 179.479 605.278 175.425 602.283 172.436C599.288 169.446 595.231 167.765 591 167.76H477.27C473.277 167.758 469.428 169.255 466.485 171.955C463.543 174.655 461.721 178.361 461.38 182.34Z" fill="#EFAF00" stroke="black" stroke-width="4" stroke-linecap="round" stroke-linejoin="round"/>
<path d="M574 205.44C574 205.44 587.51 203.2 585.34 190.44L574 205.44Z" fill="#F7F3EF"/>
<path d="M574 205.44C574 205.44 587.51 203.2 585.34 190.44" stroke="#070707" stroke-width="4" stroke-linecap="round" stroke-linejoin="round"/>
<path d="M570.96 216.81C574.798 216.81 577.91 213.698 577.91 209.86C577.91 206.022 574.798 202.91 570.96 202.91C567.122 202.91 564.01 206.022 564.01 209.86C564.01 213.698 567.122 216.81 570.96 216.81Z" fill="#EA631F" stroke="#070707" stroke-width="4" stroke-linecap="round" stroke-linejoin="round"/>
<path d="M590.83 207C590.83 207 584.62 203.42 584.83 197.31L590.83 207Z" fill="#F7F3EF"/>
<path d="M590.83 207C590.83 207 584.62 203.42 584.83 197.31" stroke="#070707" stroke-width="4" stroke-linecap="round" stroke-linejoin="round"/>
<path d="M586.16 210.63C586.033 211.756 586.242 212.894 586.762 213.901C587.282 214.908 588.088 215.739 589.08 216.287C590.071 216.836 591.203 217.078 592.332 216.983C593.462 216.889 594.537 216.461 595.424 215.755C596.31 215.049 596.967 214.096 597.312 213.017C597.657 211.938 597.674 210.78 597.361 209.691C597.048 208.602 596.419 207.63 595.554 206.898C594.689 206.167 593.626 205.708 592.5 205.58C591.752 205.495 590.995 205.558 590.271 205.766C589.548 205.974 588.873 206.323 588.284 206.792C587.695 207.26 587.204 207.841 586.84 208.499C586.476 209.158 586.245 209.882 586.16 210.63Z" fill="#EA631F" stroke="#070707" stroke-width="4" stroke-linecap="round" stroke-linejoin="round"/>
<path d="M495.22 389H558.3C561.424 389 564.421 390.241 566.63 392.45C568.839 394.659 570.08 397.656 570.08 400.78V403.38H483.44V400.78C483.44 397.656 484.681 394.659 486.89 392.45C489.1 390.241 492.096 389 495.22 389Z" fill="#F7F3EF" stroke="#070707" stroke-width="4" stroke-linecap="round" stroke-linejoin="round"/>
<path d="M493.69 389C497.02 388.997 500.214 387.673 502.569 385.318C504.923 382.963 506.248 379.77 506.25 376.44V335.16C506.25 331.829 504.927 328.634 502.571 326.279C500.216 323.923 497.021 322.6 493.69 322.6H559.83C556.499 322.6 553.304 323.923 550.949 326.279C548.593 328.634 547.27 331.829 547.27 335.16V376.44C547.273 379.77 548.597 382.963 550.952 385.318C553.307 387.673 556.5 388.997 559.83 389H493.69Z" fill="#F7F3EF" stroke="#070707" stroke-width="4" stroke-linecap="round" stroke-linejoin="round"/>
<path d="M547.27 332.79C547.16 328.37 552.9 322.6 559.83 322.6H493.69C497.021 322.6 500.216 323.923 502.571 326.279C504.927 328.634 506.25 331.829 506.25 335.16V344.85L547.27 332.79Z" fill="#F7F3EF" stroke="#070707" stroke-width="4" stroke-linecap="round" stroke-linejoin="round"/>
<path d="M493.69 389C497.02 388.997 500.214 387.673 502.569 385.318C504.923 382.963 506.248 379.77 506.25 376.44V335.16C506.25 331.829 504.927 328.634 502.571 326.279C500.216 323.923 497.021 322.6 493.69 322.6H559.83C556.499 322.6 553.304 323.923 550.949 326.279C548.593 328.634 547.27 331.829 547.27 335.16V376.44C547.273 379.77 548.597 382.963 550.952 385.318C553.307 387.673 556.5 388.997 559.83 389H493.69Z" fill="#F7F3EF" stroke="#070707" stroke-width="4" stroke-linecap="round" stroke-linejoin="round"/>
<path d="M644.46 322.6H409.06C404.507 322.57 400.076 321.124 396.382 318.461C392.689 315.798 389.917 312.051 388.45 307.74L386.6 302.47H666.92L665.07 307.74C663.602 312.05 660.83 315.796 657.136 318.459C653.443 321.122 649.013 322.569 644.46 322.6Z" fill="#F7F3EF" stroke="#070707" stroke-width="4" stroke-linecap="round" stroke-linejoin="round"/>
</svg>
