<svg width="199" height="56" viewBox="0 0 199 56" fill="none" xmlns="http://www.w3.org/2000/svg">
<path d="M13.62 49.72C10.94 48.84 8.58 47.44 6.54 45.52C4.54 43.6 3.04 41.32 2.04 38.68C1.28 36.56 0.9 34.4 0.9 32.2C0.9 29.28 1.52 26.48 2.76 23.8C4.04 21.08 5.8 18.72 8.04 16.72C10.32 14.68 12.88 13.18 15.72 12.22C18.12 11.42 20.24 11.02 22.08 11.02C25.76 11.02 27.6 12.72 27.6 16.12C27.6 17.76 27.12 19.1 26.16 20.14C25.24 21.18 24.12 22 22.8 22.6C21.52 23.16 19.84 23.76 17.76 24.4L15.96 24.94C14.76 26.06 13.78 27.3 13.02 28.66C12.26 29.98 11.88 31.26 11.88 32.5C11.88 34.66 13.12 36.26 15.6 37.3C16.2 37.58 16.9 37.8 17.7 37.96C18.54 38.12 19.34 38.26 20.1 38.38C21.54 38.58 22.68 38.82 23.52 39.1C24.36 39.34 25.06 39.8 25.62 40.48C26.18 41.16 26.46 42.14 26.46 43.42C26.46 45.9 25.72 47.7 24.24 48.82C22.76 49.94 20.88 50.5 18.6 50.5C16.96 50.5 15.3 50.24 13.62 49.72ZM45.3966 48.34C43.5566 49.78 41.5966 50.5 39.5166 50.5C37.4366 50.5 35.5366 49.82 33.8166 48.46C32.1366 47.06 30.9366 45.2 30.2166 42.88C29.6566 40.96 29.3766 38.96 29.3766 36.88C29.3766 34.36 29.7966 31.98 30.6366 29.74C31.5166 27.5 32.8366 25.64 34.5966 24.16C35.4766 23.4 36.5366 22.82 37.7766 22.42C39.0166 22.02 40.2966 21.82 41.6166 21.82C43.6566 21.82 45.3966 22.36 46.8366 23.44C48.2766 24.52 49.0566 26.1 49.1766 28.18C50.1366 30.5 50.6166 33.08 50.6166 35.92C50.6166 38.44 50.1766 40.8 49.2966 43C48.4566 45.2 47.1566 46.98 45.3966 48.34ZM43.1166 40.24C44.1166 40 44.6166 38.18 44.6166 34.78C44.6166 33.7 44.5966 33.06 44.5566 32.86C43.7166 33.54 43.1166 34.28 42.7566 35.08C41.9166 36.76 41.4966 38.08 41.4966 39.04C41.4966 39.88 41.8566 40.3 42.5766 40.3C42.8166 40.3 42.9966 40.28 43.1166 40.24ZM68.4239 48.34C66.5839 49.78 64.6239 50.5 62.5439 50.5C60.4639 50.5 58.5639 49.82 56.8439 48.46C55.1639 47.06 53.9639 45.2 53.2439 42.88C52.6839 40.96 52.4039 38.96 52.4039 36.88C52.4039 34.36 52.8239 31.98 53.6639 29.74C54.5439 27.5 55.8639 25.64 57.6239 24.16C58.5039 23.4 59.5639 22.82 60.8039 22.42C62.0439 22.02 63.3239 21.82 64.6439 21.82C66.6839 21.82 68.4239 22.36 69.8639 23.44C71.3039 24.52 72.0839 26.1 72.2039 28.18C73.1639 30.5 73.6439 33.08 73.6439 35.92C73.6439 38.44 73.2039 40.8 72.3239 43C71.4839 45.2 70.1839 46.98 68.4239 48.34ZM66.1439 40.24C67.1439 40 67.6439 38.18 67.6439 34.78C67.6439 33.7 67.6239 33.06 67.5839 32.86C66.7439 33.54 66.1439 34.28 65.7839 35.08C64.9439 36.76 64.5239 38.08 64.5239 39.04C64.5239 39.88 64.8839 40.3 65.6039 40.3C65.8439 40.3 66.0239 40.28 66.1439 40.24ZM81.1313 51.82C80.2913 52.22 79.5513 52.42 78.9113 52.42C78.1113 52.42 77.4913 52.14 77.0513 51.58C76.6513 51.02 76.3913 50.46 76.2713 49.9C76.1513 49.34 76.0113 48.48 75.8513 47.32C75.5713 44.84 75.4313 42.2 75.4313 39.4C75.4313 34.88 75.8713 29.18 76.7513 22.3L77.1113 19.3C77.3113 17.26 77.5313 15.52 77.7713 14.08C78.0513 12.64 78.4513 11.34 78.9713 10.18C79.2913 9.45999 79.8113 8.87999 80.5313 8.44C81.2513 8 81.9913 7.78 82.7513 7.78C83.4313 7.78 84.0513 7.98 84.6113 8.38C85.1713 8.74 85.5513 9.3 85.7513 10.06C86.0313 11.06 86.1713 12.2 86.1713 13.48C86.1713 14.52 86.0513 16 85.8113 17.92C85.7713 18.24 85.7113 18.8 85.6313 19.6C85.5513 20.36 85.5113 21.04 85.5113 21.64C85.4713 23.92 85.2513 27.34 84.8513 31.9L84.5513 35.32C87.4313 32.68 89.8113 31.36 91.6913 31.36C92.5313 31.36 93.2313 31.64 93.7913 32.2C94.3513 32.76 94.6313 33.4 94.6313 34.12C94.6313 35.24 94.0113 36.36 92.7713 37.48C91.5713 38.6 90.3313 39.52 89.0513 40.24C89.2513 40.48 89.8313 41.14 90.7913 42.22C91.7913 43.26 92.6713 44.38 93.4313 45.58C94.2313 46.74 94.6313 47.74 94.6313 48.58C94.6313 49.54 94.1113 50.18 93.0713 50.5C92.7513 50.58 92.5113 50.62 92.3513 50.62C91.4313 50.62 90.4313 50.12 89.3513 49.12C88.3113 48.12 87.3513 46.96 86.4713 45.64C85.5913 44.32 84.9513 43.22 84.5513 42.34C84.4313 42.38 84.2913 42.82 84.1313 43.66C83.9713 44.46 83.8313 45.28 83.7113 46.12C83.6713 46.44 83.6313 46.74 83.5913 47.02C83.5513 47.3 83.5113 47.52 83.4713 47.68C83.1913 48.64 82.8713 49.48 82.5113 50.2C82.1913 50.88 81.7313 51.42 81.1313 51.82ZM126.948 53.32C125.908 52.36 125.088 51.02 124.488 49.3C123.928 47.54 123.348 45.24 122.748 42.4C122.508 41.2 122.268 40.2 122.028 39.4C122.068 39.68 121.188 40.44 119.388 41.68C117.588 42.92 116.508 43.62 116.148 43.78C115.468 43.98 114.948 44.08 114.588 44.08C113.788 44.08 113.128 43.82 112.608 43.3C112.088 42.78 111.688 42.22 111.408 41.62C111.168 41.02 110.808 40.06 110.328 38.74C109.728 37.02 108.908 36.16 107.868 36.16C107.188 36.16 106.288 36.62 105.168 37.54C104.248 38.34 103.648 39.34 103.368 40.54C103.088 41.7 102.908 43.24 102.828 45.16C102.748 46.72 102.648 47.86 102.528 48.58C102.208 50.5 101.528 51.46 100.488 51.46C99.9278 51.46 99.3478 51.14 98.7478 50.5C98.1478 49.82 97.6878 48.96 97.3678 47.92C96.7278 45.64 96.4078 42.9 96.4078 39.7C96.4078 37.9 96.4678 36.2 96.5878 34.6L96.6478 33.34C96.7278 31.02 96.9278 29.06 97.2478 27.46C97.5678 25.86 98.2078 24.62 99.1678 23.74C99.8878 23.06 100.588 22.72 101.268 22.72C102.028 22.72 102.648 23.12 103.128 23.92C103.648 24.72 104.008 25.68 104.208 26.8C104.448 27.88 104.528 28.82 104.448 29.62C105.088 28.82 105.848 28.2 106.728 27.76C107.608 27.32 108.528 27.1 109.488 27.1C110.368 27.1 111.208 27.3 112.008 27.7C113.368 28.34 114.428 29.54 115.188 31.3C115.348 31.62 115.508 32.14 115.668 32.86C115.908 33.94 116.188 34.66 116.508 35.02C117.748 34.22 118.788 33.62 119.628 33.22C120.508 32.78 121.388 32.56 122.268 32.56C123.588 32.56 124.808 33.14 125.928 34.3C128.008 36.5 129.528 40.38 130.488 45.94C130.648 46.74 130.728 47.88 130.728 49.36C130.728 52.72 130.108 54.4 128.868 54.4C128.388 54.4 127.748 54.04 126.948 53.32ZM151.282 50.5C150.322 50.5 149.602 50.06 149.122 49.18C148.682 48.26 148.402 47.34 148.282 46.42C148.202 45.5 148.142 44.3 148.102 42.82C147.102 44.18 145.822 45.3 144.262 46.18C142.742 47.02 141.202 47.44 139.642 47.44C138.402 47.44 137.262 47.14 136.222 46.54C135.222 45.9 134.402 44.94 133.762 43.66C132.922 41.9 132.502 39.98 132.502 37.9C132.502 36.22 132.742 34.54 133.222 32.86C133.742 31.14 134.442 29.58 135.322 28.18C136.362 26.5 137.722 25.1 139.402 23.98C141.082 22.86 142.742 22.3 144.382 22.3C146.582 22.3 148.442 23.38 149.962 25.54C151.082 27.18 151.842 28.44 152.242 29.32C152.642 30.16 152.862 31.36 152.902 32.92L153.262 44.2C153.262 44.48 153.282 44.82 153.322 45.22C153.362 45.58 153.382 46.02 153.382 46.54C153.382 49.18 152.682 50.5 151.282 50.5ZM143.122 36.88C143.762 36.92 144.462 36.44 145.222 35.44C145.982 34.4 146.522 33.5 146.842 32.74C147.082 32.26 147.202 31.78 147.202 31.3C147.202 30.82 147.082 30.46 146.842 30.22C146.642 29.94 146.342 29.8 145.942 29.8C145.702 29.8 145.422 29.86 145.102 29.98C144.542 30.18 143.942 30.7 143.302 31.54C142.702 32.38 142.262 33.18 141.982 33.94C141.782 34.46 141.682 34.96 141.682 35.44C141.682 36.36 142.162 36.84 143.122 36.88ZM165.959 54.76C165.359 55.24 164.819 55.48 164.339 55.48C163.339 55.48 162.599 54.82 162.119 53.5C161.639 52.18 161.239 50.6 160.919 48.76C160.079 43.68 159.519 37.84 159.239 31.24C159.199 30.4 159.219 29.04 159.299 27.16L159.359 24.58C159.359 22.54 159.059 21.32 158.459 20.92L155.879 20.5C154.159 20.26 152.959 19.98 152.279 19.66C151.599 19.34 151.059 18.94 150.659 18.46C150.259 17.94 150.059 17.38 150.059 16.78C150.059 16.1 150.339 15.42 150.899 14.74C151.459 14.1 152.199 13.66 153.119 13.42C154.039 13.14 155.159 12.94 156.479 12.82L159.899 11.74C160.139 11.38 160.299 10.52 160.379 9.16L160.499 7.95999C160.819 6.36 161.159 5.06 161.519 4.05999C161.879 3.02 162.459 2.16 163.259 1.47999C163.819 0.919995 164.359 0.639995 164.879 0.639995C165.719 0.639995 166.399 1.31999 166.919 2.67999C167.479 3.99999 168.019 5.77999 168.539 8.02C168.819 9.26 169.039 10.1 169.199 10.54C169.279 10.78 169.359 11.04 169.439 11.32C169.559 11.6 169.759 11.76 170.039 11.8C170.319 11.84 170.719 11.88 171.239 11.92C173.119 12.04 174.319 12.14 174.839 12.22C175.359 12.3 176.079 12.52 176.999 12.88C178.159 13.32 179.159 13.88 179.999 14.56C180.879 15.24 181.319 16.08 181.319 17.08C181.319 18.08 180.759 18.86 179.639 19.42C178.559 19.98 177.339 20.4 175.979 20.68L171.059 21.28C170.819 21.36 170.559 21.4 170.279 21.4H170.099C170.059 21.4 170.019 21.46 169.979 21.58C169.979 21.66 169.919 21.82 169.799 22.06V24.16C169.799 32.24 169.459 39.36 168.779 45.52L168.599 46.84C168.399 48.8 168.119 50.44 167.759 51.76C167.399 53.08 166.799 54.08 165.959 54.76ZM185.169 47.8C182.769 47.36 180.969 46.24 179.769 44.44C178.609 42.6 178.029 40.42 178.029 37.9C178.029 35.86 178.389 33.86 179.109 31.9C179.829 29.9 180.789 28.26 181.989 26.98C183.029 25.86 184.289 24.98 185.769 24.34C187.249 23.66 188.769 23.32 190.329 23.32C191.209 23.32 192.069 23.44 192.909 23.68C194.349 24.12 195.589 24.98 196.629 26.26C197.709 27.5 198.249 28.84 198.249 30.28C198.249 31.52 197.809 32.64 196.929 33.64C196.249 34.4 195.389 34.98 194.349 35.38C193.349 35.78 192.169 36.12 190.809 36.4L189.369 36.58C188.129 36.66 187.209 36.88 186.609 37.24C186.009 37.6 185.709 38.4 185.709 39.64C185.709 40.8 186.089 41.38 186.849 41.38C187.729 41.38 189.349 40.44 191.709 38.56C191.909 38.4 192.169 38.2 192.489 37.96C192.809 37.72 193.029 37.58 193.149 37.54C193.749 37.26 194.289 37.12 194.769 37.12C195.449 37.12 195.949 37.38 196.269 37.9C196.629 38.42 196.809 39.1 196.809 39.94C196.809 40.86 196.649 41.78 196.329 42.7C196.009 43.62 195.589 44.34 195.069 44.86C194.069 45.86 192.869 46.64 191.469 47.2C190.069 47.72 188.629 47.98 187.149 47.98C186.469 47.98 185.809 47.92 185.169 47.8ZM189.129 32.62C189.369 32.7 189.589 32.74 189.789 32.74C190.549 32.74 191.269 32.54 191.949 32.14C192.669 31.74 192.909 31.28 192.669 30.76C192.549 30.72 192.349 30.7 192.069 30.7C191.429 30.7 190.849 30.86 190.329 31.18C189.809 31.5 189.409 31.98 189.129 32.62Z" fill="#E36824"/>
</svg>
