<svg width="590" height="1035" viewBox="0 0 590 1035" fill="none" xmlns="http://www.w3.org/2000/svg">
<path d="M327.671 448.186L557.654 447.943C576.804 556.808 539.567 706.904 538.174 725.342C534.278 778.913 559.865 812.409 573.024 866.574C594.453 954.965 589.125 1072.25 573.278 1116.7L510.941 1117.12C509.129 1101.8 435.318 797.643 431.705 760.854L410.092 657.278L387.475 750.549C369.621 805.698 377.54 805.542 380.082 861.236C384.446 957.069 367.06 1075.71 341.19 1116.32L270.535 1115.24C270.642 949.043 264.506 788.623 266.58 757.426C267.067 737.926 291.135 578.996 327.671 448.186Z" fill="#FFFCF7" stroke="#363636" stroke-width="3.89605" stroke-linecap="round" stroke-linejoin="round"/>
<path d="M410.092 657.278C406.575 642.473 398.754 583.253 393.436 580.75L410.092 657.278Z" fill="#FFFCF7"/>
<path d="M410.092 657.278C406.575 642.473 398.754 583.253 393.436 580.75" stroke="#363636" stroke-width="3.89605" stroke-linecap="round" stroke-linejoin="round"/>
<path d="M569.615 528.455C569.615 528.455 566.294 294.692 517.126 204.751C488.509 152.369 380.628 129.46 366.066 128.515C346.985 127.288 313.109 128.067 257.834 146.311C208.763 162.509 201.896 206.914 223.217 259.559C244.539 312.205 321.008 447.943 321.008 447.943C317.891 471.689 303.953 532.059 303.953 532.059C303.953 532.059 455.198 543.601 569.615 528.455Z" fill="#E36824" stroke="#363636" stroke-width="3.89605" stroke-linecap="round" stroke-linejoin="round"/>
<path d="M385.858 132.187C385.858 132.187 390.027 171.859 340.722 199.657L331.956 178.434L360.135 126.022L385.858 132.187Z" fill="#363636"/>
<path d="M241.821 153.207C241.821 153.207 257.668 208.492 303.953 212.222L302.005 193.813L276.223 136.609L241.821 153.207Z" fill="#363636"/>
<path d="M332.95 183.742L346.021 214.979C346.637 217.218 346.728 219.569 346.287 221.849C345.845 224.129 344.884 226.277 343.476 228.124C342.069 229.972 340.254 231.469 338.173 232.5C336.092 233.532 333.801 234.068 331.479 234.069H284.366C281.817 234.069 279.307 234.702 277.063 235.913C274.82 237.124 272.912 238.874 271.513 241.005C270.114 243.136 269.268 245.582 269.049 248.122C268.831 250.662 269.248 253.217 270.262 255.556L369.251 474.66C371.569 479.696 364.829 534.961 364.829 534.961H443.101" fill="#E36824"/>
<path d="M332.95 183.742L346.021 214.979C346.637 217.218 346.728 219.569 346.287 221.849C345.845 224.129 344.884 226.277 343.476 228.124C342.069 229.972 340.254 231.469 338.173 232.5C336.092 233.532 333.801 234.068 331.479 234.069H284.366C281.817 234.069 279.307 234.702 277.063 235.913C274.82 237.124 272.912 238.874 271.513 241.005C270.114 243.136 269.268 245.582 269.049 248.122C268.831 250.662 269.248 253.217 270.262 255.556L369.251 474.66C371.569 479.696 364.829 534.961 364.829 534.961H443.101" stroke="#363636" stroke-width="3.89605" stroke-linecap="round" stroke-linejoin="round"/>
<path d="M302.327 280.208C306.437 280.208 309.768 276.877 309.768 272.767C309.768 268.657 306.437 265.325 302.327 265.325C298.217 265.325 294.885 268.657 294.885 272.767C294.885 276.877 298.217 280.208 302.327 280.208Z" fill="#FFFCF7" stroke="#363636" stroke-width="3.89605" stroke-linecap="round" stroke-linejoin="round"/>
<path d="M342.495 280.208C346.605 280.208 349.937 276.877 349.937 272.767C349.937 268.657 346.605 265.325 342.495 265.325C338.385 265.325 335.054 268.657 335.054 272.767C335.054 276.877 338.385 280.208 342.495 280.208Z" fill="#FFFCF7" stroke="#363636" stroke-width="3.89605" stroke-linecap="round" stroke-linejoin="round"/>
<path d="M322.654 331.772C326.764 331.772 330.096 328.441 330.096 324.331C330.096 320.221 326.764 316.89 322.654 316.89C318.545 316.89 315.213 320.221 315.213 324.331C315.213 328.441 318.545 331.772 322.654 331.772Z" fill="#FFFCF7" stroke="#363636" stroke-width="3.89605" stroke-linecap="round" stroke-linejoin="round"/>
<path d="M362.823 331.772C366.932 331.772 370.264 328.441 370.264 324.331C370.264 320.221 366.932 316.89 362.823 316.89C358.713 316.89 355.381 320.221 355.381 324.331C355.381 328.441 358.713 331.772 362.823 331.772Z" fill="#FFFCF7" stroke="#363636" stroke-width="3.89605" stroke-linecap="round" stroke-linejoin="round"/>
<path d="M344.248 383.921C348.272 383.921 351.534 380.659 351.534 376.635C351.534 372.612 348.272 369.35 344.248 369.35C340.225 369.35 336.963 372.612 336.963 376.635C336.963 380.659 340.225 383.921 344.248 383.921Z" fill="#FFFCF7" stroke="#363636" stroke-width="3.89605" stroke-linecap="round" stroke-linejoin="round"/>
<path d="M380.715 383.444C384.739 383.444 388.001 380.182 388.001 376.158C388.001 372.134 384.739 368.873 380.715 368.873C376.692 368.873 373.43 372.134 373.43 376.158C373.43 380.182 376.692 383.444 380.715 383.444Z" fill="#FFFCF7" stroke="#363636" stroke-width="3.89605" stroke-linecap="round" stroke-linejoin="round"/>
<path d="M241.821 153.207C221.474 160.999 189.604 178.229 181.276 202.774C172.949 227.319 151.881 294.468 151.881 294.468C151.881 294.468 116.982 262.004 110.398 251.991C110.398 251.991 108.615 272.202 66.8591 273.088C66.8591 273.088 89.729 432.466 174.975 436.274C208.656 437.784 242.737 392.444 247.529 311.221L241.821 153.207Z" fill="#E36824" stroke="#363636" stroke-width="3.89605" stroke-linecap="round" stroke-linejoin="round"/>
<path d="M149.894 289.978C159.108 301.14 179.114 331.266 188.552 352.987L149.894 289.978Z" fill="#FFFCF7"/>
<path d="M149.894 289.978C159.108 301.14 179.114 331.266 188.552 352.987" stroke="#363636" stroke-width="3.89605" stroke-linecap="round" stroke-linejoin="round"/>
<path d="M112.141 254.056C112.141 254.056 89.2808 213.42 71.3297 204.917C65.4857 202.122 34.1127 216.089 31.3952 219.333C28.6777 222.576 21.957 248.29 21.957 248.29C21.957 248.29 32.5445 251.115 36.4406 243.488C40.9405 234.722 48.6937 225.605 58.9208 228.449C64.7649 230.086 77.1836 244.754 71.8265 248.29C66.4694 251.826 58.3072 241.472 50.6027 239.67C42.8983 237.868 37.288 243.566 37.288 243.566C37.288 243.566 48.4599 249.069 52.9988 258.683C55.6871 264.351 62.0182 275.475 78.9563 272.484C101.018 268.598 112.141 254.056 112.141 254.056Z" fill="#C48270" stroke="#363636" stroke-width="3.89605" stroke-linecap="round" stroke-linejoin="round"/>
<path d="M31.3758 219.333C31.3758 219.333 19.8825 229.589 6.87939 235.053C6.87939 235.053 10.454 245.222 24.7136 238.219L31.3758 219.333Z" fill="#363636"/>
<path d="M66.3916 272.582C66.3916 272.582 97.56 272.143 112.17 254.076L124.336 268.169C124.336 268.169 108.411 293.241 69.8688 292.189L66.3916 272.582Z" fill="#E36824" stroke="#363636" stroke-width="3.89605" stroke-linecap="round" stroke-linejoin="round"/>
<path d="M41.8756 263.329C42.0337 263.808 42.3303 264.229 42.728 264.54C43.1256 264.851 43.6064 265.036 44.1096 265.074C44.6128 265.111 45.1158 264.999 45.5551 264.75C45.9943 264.502 46.35 264.129 46.5773 263.678C46.8046 263.228 46.8933 262.72 46.832 262.219C46.7708 261.718 46.5625 261.247 46.2334 260.864C45.9043 260.482 45.4691 260.206 44.983 260.07C44.4969 259.935 43.9816 259.947 43.5022 260.105C43.1836 260.209 42.8887 260.376 42.6345 260.595C42.3803 260.813 42.1717 261.08 42.0206 261.379C41.8695 261.679 41.779 262.005 41.7541 262.34C41.7292 262.674 41.7705 263.01 41.8756 263.329Z" fill="#FFFCF7" stroke="#363636" stroke-width="3.89605" stroke-linecap="round" stroke-linejoin="round"/>
<path d="M16.5414 289.198C16.6692 289.582 16.9075 289.919 17.2265 290.167C17.5455 290.415 17.9308 290.563 18.3338 290.592C18.7368 290.621 19.1394 290.53 19.4909 290.331C19.8423 290.132 20.1269 289.833 20.3087 289.472C20.4905 289.111 20.5613 288.705 20.5123 288.304C20.4632 287.902 20.2965 287.525 20.0331 287.218C19.7698 286.912 19.4216 286.691 19.0324 286.582C18.6433 286.473 18.2307 286.482 17.8466 286.608C17.5903 286.691 17.3531 286.825 17.1487 287.001C16.9442 287.176 16.7765 287.391 16.6552 287.632C16.5339 287.872 16.4614 288.135 16.4419 288.404C16.4224 288.672 16.4562 288.943 16.5414 289.198Z" fill="#FFFCF7" stroke="#363636" stroke-width="3.89605" stroke-linecap="round" stroke-linejoin="round"/>
<path d="M25.9505 342.126C26.1093 342.608 26.4072 343.031 26.8067 343.343C27.2061 343.655 27.6891 343.841 28.1946 343.879C28.7 343.916 29.2052 343.803 29.6461 343.553C30.0871 343.303 30.444 342.928 30.6718 342.475C30.8995 342.022 30.9879 341.512 30.9256 341.009C30.8633 340.506 30.6532 340.033 30.3219 339.649C29.9906 339.266 29.553 338.989 29.0644 338.855C28.5758 338.72 28.0582 338.733 27.5771 338.893C26.9345 339.108 26.4031 339.569 26.0985 340.175C25.7939 340.78 25.7407 341.482 25.9505 342.126Z" fill="#FFFCF7" stroke="#363636" stroke-width="3.89605" stroke-linecap="round" stroke-linejoin="round"/>
<path d="M47.262 348.711C47.4364 349.239 47.7636 349.704 48.2023 350.047C48.641 350.39 49.1715 350.595 49.7267 350.636C50.2818 350.677 50.8368 350.553 51.3213 350.279C51.8059 350.005 52.1982 349.593 52.4488 349.096C52.6994 348.599 52.797 348.039 52.7292 347.486C52.6614 346.934 52.4313 346.413 52.0679 345.992C51.7046 345.57 51.2243 345.265 50.6879 345.117C50.1515 344.968 49.5829 344.981 49.0542 345.155C48.7031 345.271 48.3782 345.455 48.098 345.696C47.8179 345.938 47.5881 346.232 47.4217 346.562C47.2553 346.892 47.1555 347.252 47.1281 347.62C47.1007 347.989 47.1462 348.36 47.262 348.711Z" fill="#FFFCF7" stroke="#363636" stroke-width="3.89605" stroke-linecap="round" stroke-linejoin="round"/>
<path d="M33.9473 389.385C34.4253 389.666 34.9758 389.8 35.5296 389.769C36.0834 389.739 36.6157 389.545 37.0599 389.213C37.504 388.881 37.8402 388.425 38.0261 387.902C38.212 387.38 38.2394 386.814 38.1049 386.276C37.9704 385.738 37.68 385.252 37.27 384.878C36.8601 384.505 36.3489 384.26 35.8007 384.176C35.2525 384.092 34.6917 384.172 34.1887 384.406C33.6856 384.639 33.2628 385.016 32.9732 385.489C32.7767 385.808 32.646 386.162 32.5886 386.532C32.5312 386.902 32.5484 387.279 32.6392 387.643C32.7299 388.006 32.8924 388.347 33.1171 388.646C33.3417 388.945 33.624 389.197 33.9473 389.385Z" fill="#FFFCF7" stroke="#363636" stroke-width="3.89605" stroke-linecap="round" stroke-linejoin="round"/>
<path d="M24.9377 375.272C25.5116 375.078 26.0154 374.719 26.3854 374.239C26.7554 373.759 26.9752 373.181 27.0169 372.576C27.0587 371.972 26.9206 371.369 26.6201 370.843C26.3196 370.317 25.87 369.892 25.3282 369.621C24.7863 369.35 24.1764 369.245 23.5753 369.32C22.9742 369.396 22.4088 369.647 21.9504 370.043C21.4919 370.439 21.161 370.962 20.9993 371.546C20.8376 372.13 20.8523 372.748 21.0416 373.324C21.1693 373.708 21.3714 374.063 21.6363 374.368C21.9013 374.674 22.2239 374.925 22.5858 375.105C22.9476 375.286 23.3416 375.394 23.7452 375.423C24.1487 375.451 24.554 375.4 24.9377 375.272Z" fill="#FFFCF7" stroke="#363636" stroke-width="3.89605" stroke-linecap="round" stroke-linejoin="round"/>
<path d="M45.8496 320.922C46.0247 321.451 46.3526 321.916 46.792 322.258C47.2314 322.6 47.7624 322.805 48.3179 322.845C48.8734 322.885 49.4284 322.76 49.9127 322.485C50.3969 322.21 50.7886 321.797 51.0383 321.299C51.2879 320.801 51.3842 320.24 51.315 319.688C51.2458 319.135 51.0142 318.615 50.6496 318.194C50.2849 317.773 49.8035 317.47 49.2664 317.323C48.7292 317.175 48.1605 317.191 47.6321 317.367C46.9247 317.603 46.3398 318.109 46.0056 318.776C45.6714 319.442 45.6153 320.214 45.8496 320.922Z" fill="#FFFCF7" stroke="#363636" stroke-width="3.89605" stroke-linecap="round" stroke-linejoin="round"/>
<path d="M40.6678 292.695C40.825 293.177 41.1218 293.602 41.5208 293.916C41.9197 294.229 42.4027 294.417 42.9086 294.456C43.4144 294.494 43.9204 294.382 44.3623 294.133C44.8041 293.883 45.162 293.508 45.3906 293.056C45.6191 292.603 45.708 292.092 45.6459 291.588C45.5839 291.085 45.3737 290.611 45.0421 290.227C44.7104 289.843 44.2723 289.566 43.7831 289.432C43.2939 289.297 42.7758 289.311 42.2944 289.471C41.9758 289.576 41.681 289.742 41.4268 289.961C41.1725 290.18 40.9639 290.447 40.8129 290.746C40.6618 291.045 40.5712 291.372 40.5463 291.706C40.5215 292.041 40.5627 292.377 40.6678 292.695Z" fill="#FFFCF7" stroke="#363636" stroke-width="3.89605" stroke-linecap="round" stroke-linejoin="round"/>
<path d="M29.6809 301.052C29.8444 301.548 30.1513 301.985 30.5629 302.306C30.9745 302.628 31.4723 302.82 31.9932 302.858C32.514 302.897 33.0347 302.78 33.4891 302.523C33.9435 302.265 34.3114 301.879 34.5461 301.412C34.7807 300.945 34.8717 300.42 34.8074 299.901C34.7432 299.383 34.5266 298.895 34.1851 298.5C33.8435 298.105 33.3924 297.82 32.8889 297.681C32.3853 297.543 31.8519 297.556 31.3562 297.721C30.6928 297.941 30.1438 298.416 29.8298 299.04C29.5157 299.665 29.4622 300.388 29.6809 301.052Z" fill="#FFFCF7" stroke="#363636" stroke-width="3.89605" stroke-linecap="round" stroke-linejoin="round"/>
<path d="M31.9407 283.919C32.1041 284.415 32.4111 284.852 32.8227 285.173C33.2343 285.495 33.732 285.687 34.2529 285.726C34.7738 285.764 35.2944 285.647 35.7489 285.39C36.2033 285.132 36.5711 284.746 36.8058 284.279C37.0405 283.813 37.1315 283.287 37.0672 282.768C37.0029 282.25 36.7863 281.762 36.4448 281.367C36.1033 280.972 35.6522 280.687 35.1486 280.548C34.6451 280.41 34.1117 280.423 33.616 280.588C32.9526 280.808 32.4036 281.283 32.0895 281.907C31.7755 282.532 31.7219 283.255 31.9407 283.919Z" fill="#FFFCF7" stroke="#363636" stroke-width="3.89605" stroke-linecap="round" stroke-linejoin="round"/>
<path d="M25.5901 317.425C25.7535 317.921 26.0605 318.358 26.4721 318.679C26.8837 319.001 27.3814 319.193 27.9023 319.232C28.4232 319.27 28.9438 319.153 29.3983 318.896C29.8527 318.638 30.2206 318.252 30.4552 317.785C30.6899 317.319 30.7809 316.793 30.7166 316.275C30.6524 315.756 30.4358 315.269 30.0942 314.873C29.7527 314.478 29.3016 314.193 28.7981 314.054C28.2945 313.916 27.7611 313.93 27.2654 314.094C26.602 314.314 26.053 314.789 25.739 315.413C25.4249 316.038 25.3713 316.761 25.5901 317.425Z" fill="#FFFCF7" stroke="#363636" stroke-width="3.89605" stroke-linecap="round" stroke-linejoin="round"/>
<path d="M36.4407 364.499C36.6041 364.995 36.9111 365.432 37.3227 365.753C37.7343 366.075 38.232 366.267 38.7529 366.306C39.2738 366.344 39.7944 366.227 40.2489 365.97C40.7033 365.712 41.0711 365.326 41.3058 364.859C41.5405 364.393 41.6315 363.867 41.5672 363.348C41.5029 362.83 41.2863 362.343 40.9448 361.947C40.6033 361.552 40.1522 361.267 39.6486 361.128C39.1451 360.99 38.6117 361.004 38.116 361.168C37.4526 361.388 36.9036 361.863 36.5895 362.487C36.2755 363.112 36.2219 363.835 36.4407 364.499Z" fill="#FFFCF7" stroke="#363636" stroke-width="3.89605" stroke-linecap="round" stroke-linejoin="round"/>
<path d="M24.1585 416.677C24.3219 417.173 24.6289 417.61 25.0405 417.931C25.4521 418.253 25.9498 418.445 26.4707 418.483C26.9916 418.522 27.5122 418.405 27.9666 418.148C28.4211 417.89 28.7889 417.504 29.0236 417.037C29.2583 416.57 29.3492 416.045 29.285 415.526C29.2207 415.008 29.0041 414.52 28.6626 414.125C28.3211 413.73 27.87 413.445 27.3664 413.306C26.8628 413.168 26.3295 413.181 25.8338 413.346C25.1703 413.566 24.6214 414.041 24.3073 414.665C23.9932 415.29 23.9397 416.013 24.1585 416.677Z" fill="#FFFCF7" stroke="#363636" stroke-width="3.89605" stroke-linecap="round" stroke-linejoin="round"/>
<path d="M43.3269 394.869C43.4904 395.365 43.7973 395.802 44.2089 396.123C44.6205 396.445 45.1183 396.637 45.6391 396.676C46.16 396.714 46.6807 396.597 47.1351 396.34C47.5895 396.082 47.9574 395.696 48.1921 395.229C48.4267 394.762 48.5177 394.237 48.4534 393.718C48.3892 393.2 48.1726 392.712 47.831 392.317C47.4895 391.922 47.0384 391.637 46.5349 391.498C46.0313 391.36 45.4979 391.373 45.0022 391.538C44.3388 391.758 43.7898 392.233 43.4758 392.857C43.1617 393.482 43.1082 394.205 43.3269 394.869Z" fill="#FFFCF7" stroke="#363636" stroke-width="3.89605" stroke-linecap="round" stroke-linejoin="round"/>
<path d="M11.1943 396.768C12.6521 396.768 13.8338 395.587 13.8338 394.129C13.8338 392.671 12.6521 391.489 11.1943 391.489C9.73647 391.489 8.55469 392.671 8.55469 394.129C8.55469 395.587 9.73647 396.768 11.1943 396.768Z" fill="#FFFCF7" stroke="#363636" stroke-width="3.89605" stroke-linecap="round" stroke-linejoin="round"/>
<path d="M61.8235 394.431C61.9869 394.927 62.2939 395.363 62.7055 395.685C63.1171 396.006 63.6148 396.198 64.1357 396.237C64.6566 396.276 65.1772 396.159 65.6317 395.901C66.0861 395.644 66.454 395.257 66.6886 394.791C66.9233 394.324 67.0143 393.798 66.95 393.28C66.8858 392.762 66.6692 392.274 66.3276 391.879C65.9861 391.484 65.535 391.199 65.0314 391.06C64.5279 390.921 63.9945 390.935 63.4988 391.1C62.8354 391.32 62.2864 391.794 61.9724 392.419C61.6583 393.043 61.6047 393.767 61.8235 394.431Z" fill="#FFFCF7" stroke="#363636" stroke-width="3.89605" stroke-linecap="round" stroke-linejoin="round"/>
<path d="M36.616 330.409C36.7794 330.905 37.0864 331.341 37.498 331.663C37.9096 331.984 38.4073 332.177 38.9282 332.215C39.4491 332.254 39.9697 332.137 40.4242 331.879C40.8786 331.622 41.2464 331.235 41.4811 330.769C41.7158 330.302 41.8068 329.776 41.7425 329.258C41.6782 328.74 41.4616 328.252 41.1201 327.857C40.7786 327.462 40.3275 327.177 39.8239 327.038C39.3204 326.899 38.787 326.913 38.2913 327.078C37.6279 327.298 37.0789 327.772 36.7648 328.397C36.4508 329.021 36.3972 329.745 36.616 330.409Z" fill="#FFFCF7" stroke="#363636" stroke-width="3.89605" stroke-linecap="round" stroke-linejoin="round"/>
<path d="M12.5188 351.671C12.6823 352.168 12.9892 352.604 13.4008 352.926C13.8124 353.247 14.3102 353.439 14.831 353.478C15.3519 353.516 15.8725 353.4 16.327 353.142C16.7814 352.885 17.1493 352.498 17.3839 352.031C17.6186 351.565 17.7096 351.039 17.6453 350.521C17.5811 350.002 17.3645 349.515 17.0229 349.12C16.6814 348.724 16.2303 348.439 15.7268 348.301C15.2232 348.162 14.6898 348.176 14.1941 348.34C13.5307 348.561 12.9817 349.035 12.6677 349.66C12.3536 350.284 12.3001 351.008 12.5188 351.671Z" fill="#FFFCF7" stroke="#363636" stroke-width="3.89605" stroke-linecap="round" stroke-linejoin="round"/>
<path d="M56.0085 356.659C56.172 357.155 56.4789 357.591 56.8906 357.913C57.3022 358.234 57.7999 358.426 58.3208 358.465C58.8417 358.503 59.3623 358.387 59.8167 358.129C60.2712 357.872 60.639 357.485 60.8737 357.019C61.1084 356.552 61.1993 356.026 61.1351 355.508C61.0708 354.989 60.8542 354.502 60.5127 354.107C60.1712 353.711 59.7201 353.426 59.2165 353.288C58.713 353.149 58.1796 353.163 57.6839 353.327C57.0204 353.548 56.4715 354.022 56.1574 354.647C55.8433 355.271 55.7898 355.995 56.0085 356.659Z" fill="#FFFCF7" stroke="#363636" stroke-width="3.89605" stroke-linecap="round" stroke-linejoin="round"/>
<path d="M36.1583 255.273C36.2667 255.605 36.4712 255.897 36.7458 256.113C37.0204 256.328 37.3527 256.457 37.7008 256.484C38.0488 256.51 38.3969 256.433 38.7008 256.261C39.0047 256.089 39.2509 255.831 39.4081 255.52C39.5653 255.208 39.6264 254.857 39.5838 254.51C39.5411 254.164 39.3966 253.838 39.1685 253.574C38.9404 253.31 38.639 253.119 38.3026 253.026C37.9661 252.934 37.6096 252.943 37.2784 253.053C36.836 253.2 36.4698 253.516 36.2599 253.932C36.05 254.348 36.0135 254.83 36.1583 255.273Z" fill="#FFFCF7" stroke="#363636" stroke-width="3.89605" stroke-linecap="round" stroke-linejoin="round"/>
<path d="M42.986 308.893C43.0961 309.221 43.301 309.51 43.575 309.722C43.849 309.934 44.1797 310.061 44.5254 310.085C44.8711 310.109 45.2163 310.031 45.5173 309.859C45.8183 309.687 46.0616 309.43 46.2166 309.12C46.3716 308.81 46.4313 308.461 46.388 308.117C46.3448 307.774 46.2006 307.45 45.9738 307.188C45.7469 306.926 45.4475 306.737 45.1133 306.646C44.7792 306.554 44.4253 306.563 44.0964 306.672C43.8775 306.745 43.675 306.86 43.5007 307.011C43.3263 307.162 43.1835 307.346 43.0804 307.552C42.9772 307.758 42.9158 307.983 42.8996 308.213C42.8834 308.443 42.9128 308.674 42.986 308.893Z" fill="#FFFCF7" stroke="#363636" stroke-width="3.89605" stroke-linecap="round" stroke-linejoin="round"/>
<path d="M42.986 308.893C43.0961 309.221 43.301 309.51 43.575 309.722C43.849 309.934 44.1797 310.061 44.5254 310.085C44.8711 310.109 45.2163 310.031 45.5173 309.859C45.8183 309.687 46.0616 309.43 46.2166 309.12C46.3716 308.81 46.4313 308.461 46.388 308.117C46.3448 307.774 46.2006 307.45 45.9738 307.188C45.7469 306.926 45.4475 306.737 45.1133 306.646C44.7792 306.554 44.4253 306.563 44.0964 306.672C43.8775 306.745 43.675 306.86 43.5007 307.011C43.3263 307.162 43.1835 307.346 43.0804 307.552C42.9772 307.758 42.9158 307.983 42.8996 308.213C42.8834 308.443 42.9128 308.674 42.986 308.893Z" fill="#FFFCF7" stroke="#363636" stroke-width="3.89605" stroke-linecap="round" stroke-linejoin="round"/>
<path d="M44.8951 335.863C45.0035 336.195 45.208 336.487 45.4826 336.703C45.7572 336.918 46.0896 337.047 46.4376 337.074C46.7856 337.1 47.1337 337.022 47.4376 336.851C47.7416 336.679 47.9877 336.421 48.1449 336.11C48.3021 335.798 48.3632 335.447 48.3206 335.1C48.2779 334.754 48.1334 334.428 47.9053 334.164C47.6773 333.899 47.3759 333.709 47.0394 333.616C46.7029 333.523 46.3464 333.533 46.0152 333.643C45.5728 333.789 45.2067 334.106 44.9968 334.522C44.7869 334.938 44.7503 335.42 44.8951 335.863Z" fill="#FFFCF7" stroke="#363636" stroke-width="3.89605" stroke-linecap="round" stroke-linejoin="round"/>
<path d="M20.3304 326.065C21.2987 326.065 22.0836 325.28 22.0836 324.312C22.0836 323.343 21.2987 322.558 20.3304 322.558C19.3621 322.558 18.5771 323.343 18.5771 324.312C18.5771 325.28 19.3621 326.065 20.3304 326.065Z" fill="#FFFCF7" stroke="#363636" stroke-width="3.89605" stroke-linecap="round" stroke-linejoin="round"/>
<path d="M15.8208 337.295C15.9289 337.624 16.1317 337.913 16.4037 338.126C16.6757 338.34 17.0047 338.468 17.3494 338.495C17.6941 338.522 18.0391 338.446 18.341 338.278C18.6428 338.109 18.8881 337.855 19.046 337.547C19.2038 337.24 19.2672 336.892 19.2281 336.549C19.1891 336.205 19.0493 335.881 18.8264 335.617C18.6035 335.352 18.3074 335.16 17.9754 335.063C17.6434 334.967 17.2903 334.971 16.9604 335.074C16.7389 335.144 16.5334 335.257 16.3559 335.407C16.1783 335.556 16.0323 335.74 15.9263 335.947C15.8203 336.153 15.7564 336.379 15.7382 336.61C15.7201 336.842 15.7482 337.075 15.8208 337.295Z" fill="#FFFCF7" stroke="#363636" stroke-width="3.89605" stroke-linecap="round" stroke-linejoin="round"/>
<path d="M44.6127 380.502C44.7228 380.831 44.9277 381.12 45.2017 381.332C45.4757 381.544 45.8064 381.67 46.1521 381.694C46.4978 381.719 46.843 381.64 47.144 381.468C47.445 381.297 47.6883 381.04 47.8433 380.73C47.9983 380.42 48.0579 380.071 48.0147 379.727C47.9715 379.383 47.8273 379.06 47.6005 378.798C47.3736 378.536 47.0742 378.347 46.74 378.255C46.4059 378.163 46.052 378.172 45.7231 378.282C45.5042 378.354 45.3017 378.469 45.1274 378.62C44.9531 378.771 44.8102 378.955 44.7071 379.162C44.6039 379.368 44.5425 379.592 44.5263 379.823C44.5101 380.053 44.5395 380.284 44.6127 380.502Z" fill="#FFFCF7" stroke="#363636" stroke-width="3.89605" stroke-linecap="round" stroke-linejoin="round"/>
<path d="M60.9078 374.434C61.0162 374.766 61.2207 375.058 61.4953 375.274C61.7699 375.489 62.1023 375.618 62.4503 375.645C62.7983 375.671 63.1464 375.593 63.4503 375.422C63.7543 375.25 64.0004 374.992 64.1576 374.681C64.3148 374.369 64.3759 374.018 64.3333 373.671C64.2906 373.325 64.1461 372.999 63.918 372.735C63.6899 372.47 63.3886 372.28 63.0521 372.187C62.7156 372.094 62.3591 372.103 62.0279 372.213C61.5855 372.36 61.2194 372.677 61.0095 373.093C60.7995 373.509 60.763 373.991 60.9078 374.434Z" fill="#FFFCF7" stroke="#363636" stroke-width="3.89605" stroke-linecap="round" stroke-linejoin="round"/>
<path d="M21.9085 398.278C22.0169 398.61 22.2214 398.902 22.496 399.117C22.7706 399.333 23.103 399.462 23.451 399.488C23.7991 399.515 24.1471 399.437 24.451 399.266C24.755 399.094 25.0011 398.836 25.1583 398.524C25.3155 398.213 25.3767 397.861 25.334 397.515C25.2914 397.169 25.1468 396.843 24.9188 396.578C24.6907 396.314 24.3893 396.124 24.0528 396.031C23.7163 395.938 23.3599 395.947 23.0286 396.057C22.5863 396.204 22.2201 396.52 22.0102 396.937C21.8003 397.353 21.7637 397.835 21.9085 398.278Z" fill="#FFFCF7" stroke="#363636" stroke-width="3.89605" stroke-linecap="round" stroke-linejoin="round"/>
<path d="M41.3655 405.323C41.5124 404.366 40.8557 403.471 39.8987 403.324C38.9416 403.177 38.0466 403.834 37.8996 404.791C37.7527 405.748 38.4094 406.643 39.3665 406.79C40.3235 406.937 41.2185 406.28 41.3655 405.323Z" fill="#FFFCF7" stroke="#363636" stroke-width="3.89605" stroke-linecap="round" stroke-linejoin="round"/>
<path d="M8.79825 380.561C8.9083 380.889 9.11327 381.178 9.38726 381.39C9.66125 381.602 9.99198 381.729 10.3377 381.753C10.6834 381.777 11.0285 381.699 11.3295 381.527C11.6305 381.355 11.8739 381.098 12.0289 380.788C12.1839 380.478 12.2435 380.129 12.2003 379.785C12.157 379.441 12.0129 379.118 11.786 378.856C11.5591 378.594 11.2597 378.405 10.9256 378.313C10.5914 378.222 10.2375 378.231 9.90863 378.34C9.68972 378.413 9.4873 378.528 9.31295 378.679C9.1386 378.83 8.99576 379.014 8.89261 379.22C8.78947 379.426 8.72804 379.651 8.71185 379.881C8.69565 380.111 8.72501 380.342 8.79825 380.561Z" fill="#FFFCF7" stroke="#363636" stroke-width="3.89605" stroke-linecap="round" stroke-linejoin="round"/>
<path d="M67.9694 384.009C68.0788 384.337 68.283 384.626 68.5564 384.839C68.8297 385.051 69.1599 385.178 69.5052 385.203C69.8506 385.229 70.1957 385.151 70.497 384.98C70.7983 384.81 71.0423 384.554 71.1982 384.244C71.3542 383.935 71.4151 383.587 71.3732 383.243C71.3314 382.899 71.1887 382.576 70.9632 382.313C70.7376 382.05 70.4393 381.86 70.1058 381.767C69.7724 381.673 69.4188 381.681 69.0895 381.788C68.8697 381.86 68.6663 381.974 68.4909 382.125C68.3155 382.275 68.1716 382.459 68.0675 382.665C67.9634 382.872 67.9011 383.097 67.8843 383.327C67.8675 383.558 67.8964 383.789 67.9694 384.009Z" fill="#FFFCF7" stroke="#363636" stroke-width="3.89605" stroke-linecap="round" stroke-linejoin="round"/>
<path d="M52.025 402.836C52.1334 403.168 52.3378 403.46 52.6125 403.676C52.8871 403.891 53.2194 404.02 53.5675 404.047C53.9155 404.073 54.2636 403.996 54.5675 403.824C54.8714 403.652 55.1176 403.394 55.2748 403.083C55.432 402.771 55.4931 402.42 55.4505 402.073C55.4078 401.727 55.2633 401.401 55.0352 401.137C54.8071 400.873 54.5057 400.682 54.1693 400.589C53.8328 400.497 53.4763 400.506 53.1451 400.616C52.7027 400.763 52.3365 401.079 52.1266 401.495C51.9167 401.911 51.8802 402.393 52.025 402.836Z" fill="#FFFCF7" stroke="#363636" stroke-width="3.89605" stroke-linecap="round" stroke-linejoin="round"/>
<path d="M49.9412 422.388C50.0881 421.43 49.4314 420.535 48.4743 420.389C47.5173 420.242 46.6223 420.898 46.4753 421.855C46.3284 422.812 46.9851 423.707 47.9421 423.854C48.8992 424.001 49.7942 423.345 49.9412 422.388Z" fill="#FFFCF7" stroke="#363636" stroke-width="3.89605" stroke-linecap="round" stroke-linejoin="round"/>
<path d="M62.8365 411.807C62.9449 412.139 63.1494 412.431 63.424 412.646C63.6986 412.862 64.031 412.991 64.379 413.017C64.727 413.044 65.0751 412.966 65.379 412.795C65.683 412.623 65.9291 412.365 66.0863 412.053C66.2435 411.742 66.3046 411.39 66.262 411.044C66.2193 410.698 66.0748 410.372 65.8467 410.107C65.6186 409.843 65.3173 409.653 64.9808 409.56C64.6443 409.467 64.2878 409.476 63.9566 409.586C63.5142 409.733 63.1481 410.049 62.9382 410.465C62.7282 410.882 62.6917 411.364 62.8365 411.807Z" fill="#FFFCF7" stroke="#363636" stroke-width="3.89605" stroke-linecap="round" stroke-linejoin="round"/>
<path d="M16.3857 410.268C16.4941 410.6 16.6986 410.892 16.9732 411.107C17.2478 411.323 17.5801 411.452 17.9282 411.478C18.2762 411.505 18.6243 411.427 18.9282 411.256C19.2322 411.084 19.4783 410.826 19.6355 410.514C19.7927 410.203 19.8538 409.851 19.8112 409.505C19.7685 409.159 19.624 408.833 19.3959 408.568C19.1678 408.304 18.8665 408.114 18.53 408.021C18.1935 407.928 17.837 407.937 17.5058 408.047C17.286 408.119 17.0826 408.233 16.9072 408.384C16.7318 408.535 16.5878 408.718 16.4837 408.925C16.3796 409.131 16.3174 409.356 16.3006 409.587C16.2837 409.817 16.3127 410.049 16.3857 410.268Z" fill="#FFFCF7" stroke="#363636" stroke-width="3.89605" stroke-linecap="round" stroke-linejoin="round"/>
<path d="M2.08721 420.223C2.19564 420.554 2.4001 420.846 2.6747 421.062C2.94931 421.277 3.28169 421.407 3.62974 421.433C3.97778 421.459 4.32582 421.382 4.62976 421.21C4.9337 421.039 5.17985 420.781 5.33704 420.469C5.49423 420.157 5.55537 419.806 5.51272 419.46C5.47008 419.113 5.32556 418.787 5.09747 418.523C4.86939 418.259 4.56801 418.068 4.23152 417.975C3.89504 417.883 3.53859 417.892 3.20734 418.002C2.76498 418.149 2.39881 418.465 2.1889 418.881C1.97899 419.297 1.94242 419.78 2.08721 420.223Z" fill="#FFFCF7" stroke="#363636" stroke-width="3.89605" stroke-linecap="round" stroke-linejoin="round"/>
<path d="M20.467 438.232C20.5754 438.564 20.7799 438.856 21.0545 439.072C21.3291 439.287 21.6614 439.416 22.0095 439.442C22.3575 439.469 22.7056 439.391 23.0095 439.22C23.3135 439.048 23.5596 438.79 23.7168 438.478C23.874 438.167 23.9351 437.815 23.8925 437.469C23.8498 437.123 23.7053 436.797 23.4772 436.532C23.2491 436.268 22.9478 436.078 22.6113 435.985C22.2748 435.892 21.9183 435.901 21.5871 436.011C21.3673 436.083 21.1639 436.197 20.9885 436.348C20.813 436.499 20.6691 436.682 20.565 436.889C20.4609 437.095 20.3987 437.32 20.3818 437.551C20.365 437.781 20.394 438.013 20.467 438.232Z" fill="#FFFCF7" stroke="#363636" stroke-width="3.89605" stroke-linecap="round" stroke-linejoin="round"/>
<path d="M23.0773 353.639C23.1874 353.968 23.3923 354.256 23.6663 354.468C23.9403 354.681 24.271 354.807 24.6167 354.831C24.9624 354.856 25.3076 354.777 25.6086 354.605C25.9096 354.433 26.1529 354.176 26.3079 353.866C26.4629 353.556 26.5225 353.207 26.4793 352.864C26.4361 352.52 26.2919 352.196 26.0651 351.935C25.8382 351.673 25.5388 351.484 25.2046 351.392C24.8705 351.3 24.5166 351.309 24.1877 351.418C23.9688 351.491 23.7663 351.606 23.592 351.757C23.4177 351.908 23.2748 352.092 23.1717 352.298C23.0685 352.505 23.0071 352.729 22.9909 352.959C22.9747 353.189 23.0041 353.42 23.0773 353.639Z" fill="#FFFCF7" stroke="#363636" stroke-width="3.89605" stroke-linecap="round" stroke-linejoin="round"/>
<path d="M48.5574 374.6C49.5257 374.6 50.3107 373.815 50.3107 372.847C50.3107 371.878 49.5257 371.093 48.5574 371.093C47.5891 371.093 46.8042 371.878 46.8042 372.847C46.8042 373.815 47.5891 374.6 48.5574 374.6Z" fill="#FFFCF7" stroke="#363636" stroke-width="3.89605" stroke-linecap="round" stroke-linejoin="round"/>
<path d="M40.7164 354.769C40.8248 355.101 41.0293 355.393 41.3039 355.608C41.5785 355.824 41.9109 355.953 42.2589 355.979C42.6069 356.006 42.955 355.928 43.2589 355.756C43.5628 355.585 43.809 355.327 43.9662 355.015C44.1234 354.704 44.1845 354.352 44.1419 354.006C44.0992 353.66 43.9547 353.334 43.7266 353.069C43.4985 352.805 43.1972 352.615 42.8607 352.522C42.5242 352.429 42.1677 352.438 41.8365 352.548C41.3941 352.695 41.0279 353.011 40.818 353.427C40.6081 353.844 40.5716 354.326 40.7164 354.769Z" fill="#FFFCF7" stroke="#363636" stroke-width="3.89605" stroke-linecap="round" stroke-linejoin="round"/>
<path d="M250.383 113.379C249.165 111.996 248.892 141.557 253.587 162.879C262.207 202.005 289.937 210.469 295.294 210.868C326.365 213.147 348.621 180.041 348.729 169.268C348.836 158.496 348.592 150.509 348.592 150.509C348.592 150.509 369.913 138.246 359.638 126.022C353.092 118.249 308.025 99.4022 250.383 113.379Z" fill="#C48270" stroke="#363636" stroke-width="3.89605" stroke-linecap="round" stroke-linejoin="round"/>
<path d="M250.383 113.379L243.73 84.5876C243.73 84.5876 293.629 61.0846 363.943 98.438L359.638 126.022C359.638 126.022 314.609 99.4412 250.383 113.379Z" fill="#FFFCF7" stroke="#363636" stroke-width="3.89605" stroke-linecap="round" stroke-linejoin="round"/>
<path d="M222.477 66.2371C228.964 78.7337 240.448 86.0875 243.759 84.5875C261.613 76.5129 286.986 77.185 295.557 77.6915C328.752 114.383 411.465 169.668 405.202 96.8503C398.949 23.6532 268.538 -18.5605 230.026 12.1112C222.886 17.7994 206.951 36.4128 222.477 66.2371Z" fill="#FFFCF7" stroke="#363636" stroke-width="3.89605" stroke-linecap="round" stroke-linejoin="round"/>
<path d="M393.796 132.285C361.43 134.282 320.833 103.318 297.369 79.0648C297.369 79.0648 297.369 79.0648 297.32 79.0161L296.785 78.5193C279.476 62.2338 258.35 21.6662 216.916 37.2894" stroke="#363636" stroke-width="3.89605" stroke-linecap="round" stroke-linejoin="round"/>
<path d="M299.707 109.785C299.707 109.785 269.405 137.252 246.399 126.908C220.753 115.386 242.59 97.1912 248.678 106.045C256.792 117.811 272.152 105.782 299.707 109.785Z" fill="#363636"/>
<path d="M320.502 112.532C320.502 112.532 332.19 113.779 335.784 128.116C339.378 142.454 346.995 134.827 346.995 134.827C346.995 134.827 347.628 120.334 351.329 122.009C341.643 117.18 331.228 113.979 320.502 112.532Z" fill="#363636"/>
<path d="M526.856 244.589C527.324 267.458 510.483 421.859 486.853 442.868C462.688 464.297 357.865 478.858 274.45 486.212C274.45 486.212 281.522 453.378 249.935 447.943C249.935 447.943 364.449 394.528 394.722 391.694C394.722 391.694 419.88 263.523 436.01 234.624C461.013 189.8 525.541 180.888 526.856 244.589Z" fill="#E36824"/>
<path d="M300.593 423.417C335.19 410.015 383.472 393.223 400.176 391.664C400.176 391.664 412.945 280.296 429.075 251.407" stroke="#363636" stroke-width="3.89605" stroke-linecap="round" stroke-linejoin="round"/>
<path d="M535.194 243.527C537.444 315.691 509.47 428.813 477.727 452.053C467.987 459.212 310.849 483.631 300.369 484.371" stroke="#363636" stroke-width="3.89605" stroke-linecap="round" stroke-linejoin="round"/>
<path d="M274.324 485.53C268.606 490.751 238.909 510.445 223.675 513.241C214.11 515.004 196.578 508.809 194.455 507.504C192.331 506.199 180.03 489.894 180.03 489.894C180.03 489.894 187.13 482.861 194.99 489.504C205.091 498.056 214.821 493.751 221.143 488.443C223.772 486.232 226.909 480.222 223.315 477.154C219.721 474.086 210.214 482.219 206.299 482.521C198.341 483.134 196.023 479.306 196.023 479.306C196.023 479.306 212.055 463.722 215.25 461.384C218.445 459.047 237.331 447.943 254.21 448.187C267.681 448.381 287.57 473.414 274.324 485.53Z" fill="#C48270" stroke="#363636" stroke-width="3.89605" stroke-linecap="round" stroke-linejoin="round"/>
<path d="M249.935 447.943L271.178 438.281C271.178 438.281 298.557 448.216 300.398 485.813L274.46 486.212C274.46 486.212 270.369 456.982 249.935 447.943Z" fill="#E36824" stroke="#363636" stroke-width="3.89605" stroke-linecap="round" stroke-linejoin="round"/>
<path d="M349.81 148.259C356.781 148.259 362.433 142.607 362.433 135.636C362.433 128.664 356.781 123.012 349.81 123.012C342.838 123.012 337.187 128.664 337.187 135.636C337.187 142.607 342.838 148.259 349.81 148.259Z" fill="#C48270"/>
<path d="M341.638 139.717C341.638 139.717 345.427 128.632 353.219 129.207" stroke="#363636" stroke-width="3.89605" stroke-linecap="round" stroke-linejoin="round"/>
<path d="M346.995 134.788L351.329 137.915" stroke="#363636" stroke-width="3.89605" stroke-linecap="round" stroke-linejoin="round"/>
<path d="M281.269 141.012L275.015 163.103L288.213 169.999" stroke="#363636" stroke-width="3.89605" stroke-linecap="round" stroke-linejoin="round"/>
<path d="M300.944 144.324C302.988 144.324 304.645 142.261 304.645 139.717C304.645 137.172 302.988 135.11 300.944 135.11C298.9 135.11 297.242 137.172 297.242 139.717C297.242 142.261 298.9 144.324 300.944 144.324Z" fill="#363636"/>
<path d="M265.908 150.918C267.952 150.918 269.61 148.855 269.61 146.311C269.61 143.766 267.952 141.704 265.908 141.704C263.864 141.704 262.207 143.766 262.207 146.311C262.207 148.855 263.864 150.918 265.908 150.918Z" fill="#363636"/>
<path d="M285.651 184.784C290.659 186.216 296.025 185.662 300.635 183.239C305.244 180.815 308.742 176.708 310.401 171.771" stroke="#363636" stroke-width="3.89605" stroke-linecap="round" stroke-linejoin="round"/>
</svg>
